# xmcd
#
# Track frame offsets: 
#        150
#        14439
#        27436
#        40441
#        51945
#        62394
#        73853
#        86629
#        98271
#        108583
#        120133
#        130145
#        140229
#        153558
#        167408
#        181009
#        192426
#        205093
#        217396
#        234866
#
# Disc length: 3334 seconds
#
# Revision: 0
# Processed by: cddbd v1.5.2PL0 Copyright (c) Steve Scherf et al.
# Submitted via: ExactAudioCopy v0.95b3
#
DISCID=160d0414
DTITLE=Various Artist - Shake What You Brought!
DYEAR=2005
DGENRE=Soul
TTITLE0=Sticky Sue (Mickey Murray)
TTITLE1=There's a Break in the Road (Betty Harris)
TTITLE2=Lonely For You Baby (Sam Dees)
TTITLE3=Don't Talk Like That (Clarence Murray)
TTITLE4=Piece of My Heart (Bettye LaVette)
TTITLE5=Natural Soul Brother (Danny White)
TTITLE6=Soul Butter (Johnny Barfield and the Men Of S.O.U.L)
TTITLE7=Take a Chance With Me (Big John Hamilton)
TTITLE8=Shake What You Brought With You [Part I] (Mr. Jamo)
TTITLE9=The Hiccup (Robert Parker)
TTITLE10=Hit Record (Mickey Murray)
TTITLE11=Having My Glory (Jo Jo Benson)
TTITLE12=You Can Never Get Something For Nothing (Peggy Scott)
TTITLE13=Pretty Little Women (Wilbert Harrison)
TTITLE14=I've Really Got Something to be Proud Of (Willie Charles Gray
TTITLE14=)
TTITLE15=I Almost Called Your Name (Johnny Soul)
TTITLE16=I Wanta Make Her Love Me 'Til the Cows Come Home (Jake Porter
TTITLE16=)
TTITLE17=Proud Woman (Johnny Adams)
TTITLE18=Soul Serenade (Bill Memmans and Clay's Composite)
TTITLE19=Soul Ranger (Clifford Curry)
EXTD=
EXTT0=
EXTT1=
EXTT2=
EXTT3=
EXTT4=
EXTT5=
EXTT6=
EXTT7=
EXTT8=
EXTT9=
EXTT10=
EXTT11=
EXTT12=
EXTT13=
EXTT14=
EXTT15=
EXTT16=
EXTT17=
EXTT18=
EXTT19=
PLAYORDER=
